<svg width="13" height="13" viewBox="0 0 13 13" fill="none" xmlns="http://www.w3.org/2000/svg">
<path d="M8.1665 0H1.1665C0.857083 4.14401e-09 0.560337 0.122916 0.341544 0.341709C0.122752 0.560501 -0.000164032 0.857247 -0.000164032 1.16667V8.16667C-0.000164032 8.47609 0.122752 8.77283 0.341544 8.99162C0.560337 9.21042 0.857083 9.33333 1.1665 9.33333H8.1665C8.47592 9.33333 8.77267 9.21042 8.99146 8.99162C9.21025 8.77283 9.33317 8.47609 9.33317 8.16667V1.16667C9.33317 0.857247 9.21025 0.560501 8.99146 0.341709C8.77267 0.122916 8.47592 0 8.1665 0ZM8.1665 1C8.21071 1 8.2531 1.01756 8.28435 1.04882C8.31561 1.08007 8.33317 1.12246 8.33317 1.16667V8.16667C8.33317 8.18855 8.32886 8.21023 8.32048 8.23045C8.31211 8.25067 8.29983 8.26904 8.28435 8.28452C8.26888 8.29999 8.2505 8.31227 8.23028 8.32065C8.21006 8.32902 8.18839 8.33333 8.1665 8.33333H1.1665C1.1223 8.33333 1.07991 8.31577 1.04865 8.28452C1.0174 8.25326 0.999837 8.21087 0.999837 8.16667V1.16667C0.999837 1.12246 1.0174 1.08007 1.04865 1.04882C1.07991 1.01756 1.1223 1 1.1665 1H8.1665ZM4.33317 10.3333C4.33317 10.2007 4.28049 10.0735 4.18672 9.97978C4.09296 9.88601 3.96578 9.83333 3.83317 9.83333C3.70056 9.83333 3.57338 9.88601 3.47962 9.97978C3.38585 10.0735 3.33317 10.2007 3.33317 10.3333V11.5C3.33317 11.8094 3.45609 12.1062 3.67488 12.325C3.89367 12.5438 4.19042 12.6667 4.49984 12.6667H11.4998C11.8093 12.6667 12.106 12.5438 12.3248 12.325C12.5436 12.1062 12.6665 11.8094 12.6665 11.5V4.5C12.6665 4.19058 12.5436 3.89384 12.3248 3.67504C12.106 3.45625 11.8093 3.33333 11.4998 3.33333H10.3332C10.2006 3.33333 10.0734 3.38601 9.97962 3.47978C9.88585 3.57355 9.83317 3.70073 9.83317 3.83333C9.83317 3.96594 9.88585 4.09312 9.97962 4.18689C10.0734 4.28066 10.2006 4.33333 10.3332 4.33333H11.4998C11.544 4.33333 11.5864 4.35089 11.6177 4.38215C11.6489 4.41341 11.6665 4.4558 11.6665 4.5V11.5C11.6665 11.5442 11.6489 11.5866 11.6177 11.6179C11.5864 11.6491 11.544 11.6667 11.4998 11.6667H4.49984C4.45563 11.6667 4.41324 11.6491 4.38199 11.6179C4.35073 11.5866 4.33317 11.5442 4.33317 11.5V10.3333Z" fill="#6E6E6E"/>
</svg>
