<svg width="27" height="21" viewBox="0 0 27 21" fill="none" xmlns="http://www.w3.org/2000/svg">
  <path
    d="M22.1324 1.83152C20.4494 1.04902 18.6498 0.480339 16.7684 0.156525C16.5373 0.571643 16.2674 1.12999 16.0813 1.57415C14.0813 1.27527 12.0997 1.27527 10.1365 1.57415C9.95042 1.12999 9.67434 0.571643 9.44122 0.156525C7.55778 0.480339 5.75614 1.05111 4.07312 1.83566C0.67844 6.93322 -0.241802 11.9042 0.21832 16.8045C2.46985 18.4753 4.65185 19.4903 6.79703 20.1545C7.32669 19.4301 7.79907 18.6601 8.20602 17.8485C7.43097 17.5559 6.68865 17.1947 5.98724 16.7755C6.17332 16.6385 6.35534 16.4953 6.53119 16.3479C10.8093 18.3363 15.4575 18.3363 19.6845 16.3479C19.8625 16.4953 20.0444 16.6385 20.2285 16.7755C19.525 17.1968 18.7807 17.5579 18.0056 17.8506C18.4126 18.6601 18.8829 19.4322 19.4146 20.1565C21.5618 19.4924 23.7459 18.4774 25.9974 16.8045C26.5373 11.1238 25.0751 6.19847 22.1324 1.83152ZM8.78885 13.7908C7.50461 13.7908 6.45142 12.5995 6.45142 11.1487C6.45142 9.69784 7.48212 8.50441 8.78885 8.50441C10.0956 8.50441 11.1488 9.69575 11.1263 11.1487C11.1283 12.5995 10.0956 13.7908 8.78885 13.7908ZM17.4269 13.7908C16.1426 13.7908 15.0895 12.5995 15.0895 11.1487C15.0895 9.69784 16.1201 8.50441 17.4269 8.50441C18.7336 8.50441 19.7868 9.69575 19.7643 11.1487C19.7643 12.5995 18.7336 13.7908 17.4269 13.7908Z"
    fill="white" />
</svg>