<svg width="127" height="128" viewBox="0 0 127 128" fill="none" xmlns="http://www.w3.org/2000/svg">
  <path fill-rule="evenodd" clip-rule="evenodd"
    d="M63.5 126C98.2939 126 126.5 97.7939 126.5 63C126.5 28.2061 98.2939 0 63.5 0C47.8897 0 41.9559 18.7234 30.95 28.1261C17.4247 39.6812 0.5 43.8164 0.5 63C0.5 97.7939 28.7061 126 63.5 126Z"
    fill="#EEF0F6" />
  <g filter="url(#filter0_f_40000628_3188)">
    <path fill-rule="evenodd" clip-rule="evenodd"
      d="M64.5502 115.5C88.9059 115.5 108.65 95.7556 108.65 71.3998C108.65 47.044 88.9059 27.2998 64.5502 27.2998C53.623 27.2998 49.4693 40.4062 41.7652 46.9881C32.2975 55.0767 20.4502 57.9713 20.4502 71.3998C20.4502 95.7556 40.1944 115.5 64.5502 115.5Z"
      fill="#E1E5EF" />
  </g>
  <path
    d="M62.9751 100.8C83.2716 100.8 99.7251 84.3463 99.7251 64.0498C99.7251 43.7533 83.2716 27.2998 62.9751 27.2998C42.6786 27.2998 26.2251 43.7533 26.2251 64.0498C26.2251 84.3463 42.6786 100.8 62.9751 100.8Z"
    fill="white" />
  <path fill-rule="evenodd" clip-rule="evenodd"
    d="M89.8287 29.2619C93.1681 29.1828 96.3257 30.0171 98.6131 32.3045C101.009 34.7006 101.81 38.0463 101.638 41.5656C101.467 45.0844 100.324 49.0726 98.4665 53.242C94.7449 61.5982 87.9218 71.2094 78.9379 80.1933C69.954 89.1773 60.3428 96.0003 51.9866 99.722C47.8171 101.579 43.829 102.723 40.3102 102.894C36.7908 103.065 33.4451 102.265 31.0491 99.8686C28.716 97.5355 27.8951 94.2993 28.0122 90.8844C28.1292 87.4747 29.1784 83.6177 30.9098 79.5848C34.5633 71.0747 41.5088 61.1953 50.7243 51.9798C60.1074 42.5967 70.1819 35.5639 78.8002 31.9658C82.7346 30.3233 86.4975 29.3408 89.8287 29.2619ZM89.9531 34.5104C87.4982 34.5686 84.4039 35.3155 80.8228 36.8106C72.9976 40.0776 63.477 46.6517 54.4366 55.6921C45.5611 64.5676 39.0599 73.9089 35.734 81.6559C34.1526 85.3393 33.3461 88.5308 33.2592 91.0644C33.1724 93.5928 33.7996 95.1944 34.7614 96.1563C35.7483 97.1432 37.4121 97.7787 40.0551 97.6501C42.6986 97.5215 46.0257 96.6297 49.8506 94.9261C57.4832 91.5268 66.5773 85.1293 75.2256 76.481C83.8738 67.8328 90.2713 58.7386 93.6707 51.1061C95.3742 47.2812 96.2661 43.9541 96.3947 41.3105C96.5233 38.6675 95.8877 37.0037 94.9008 36.0168C93.9571 35.0731 92.3998 34.4524 89.9531 34.5104Z"
    fill="#676C93" />
  <path fill-rule="evenodd" clip-rule="evenodd"
    d="M56.0609 74.3686C76.3573 74.3686 71.3341 75.2495 71.3341 55.243C71.3341 43.8216 94.3627 41.9168 85.9842 35.2773C82.5612 32.5646 78.6346 30.4441 74.3647 29.0735C70.7788 27.9224 67.4756 35.2773 63.5001 35.2773C43.2036 35.2773 37.8694 43.5186 37.8694 63.5251C37.8694 68.3031 27.1635 72.8649 28.8686 77.0415C30.5636 81.1933 33.0162 84.9644 36.0577 88.1882C42.7679 95.3008 45.4301 74.3686 56.0609 74.3686Z"
    fill="white" />
  <defs>
    <filter id="filter0_f_40000628_3188" x="8.9002" y="15.7498" width="111.3" height="111.3"
      filterUnits="userSpaceOnUse" color-interpolation-filters="sRGB">
      <feFlood flood-opacity="0" result="BackgroundImageFix" />
      <feBlend mode="normal" in="SourceGraphic" in2="BackgroundImageFix" result="shape" />
      <feGaussianBlur stdDeviation="5.775" result="effect1_foregroundBlur_40000628_3188" />
    </filter>
  </defs>
</svg>