<svg width="1803" height="20" viewBox="0 0 1803 20" fill="none" xmlns="http://www.w3.org/2000/svg">
<rect x="1" y="1" width="1800" height="1" stroke="#4B4B4B"/>
<path d="M1 15H11" stroke="#4B4B4B"/>
<path d="M6 10L6 20" stroke="#4B4B4B"/>
<path d="M225 15H235" stroke="#4B4B4B"/>
<path d="M230 10L230 20" stroke="#4B4B4B"/>
<path d="M449 15H459" stroke="#4B4B4B"/>
<path d="M454 10L454 20" stroke="#4B4B4B"/>
<path d="M673 15H683" stroke="#4B4B4B"/>
<path d="M678 10L678 20" stroke="#4B4B4B"/>
<path d="M897 15H907" stroke="#4B4B4B"/>
<path d="M902 10L902 20" stroke="#4B4B4B"/>
<path d="M1121 15H1131" stroke="#4B4B4B"/>
<path d="M1126 10L1126 20" stroke="#4B4B4B"/>
<path d="M1345 15H1355" stroke="#4B4B4B"/>
<path d="M1350 10L1350 20" stroke="#4B4B4B"/>
<path d="M1569 15H1579" stroke="#4B4B4B"/>
<path d="M1574 10L1574 20" stroke="#4B4B4B"/>
<path d="M1793 15H1803" stroke="#4B4B4B"/>
<path d="M1798 10L1798 20" stroke="#4B4B4B"/>
</svg>
