<svg width="25" height="24" viewBox="0 0 25 24" fill="none" xmlns="http://www.w3.org/2000/svg">
<path opacity="0.4" d="M17.7173 5.11485H14.7743C14.0411 5.11969 13.345 4.79355 12.8804 4.22751L11.9112 2.88762C11.4544 2.31661 10.7583 1.98894 10.0262 2.00028H7.94561C4.2112 2.00028 2.83302 4.19201 2.83302 7.91884V11.9474C2.82837 12.3904 22.8287 12.3898 22.8299 11.9474V10.7761C22.8477 7.04924 21.5051 5.11485 17.7173 5.11485Z" fill="#8C8C8C"/>
<path fill-rule="evenodd" clip-rule="evenodd" d="M21.6651 6.54347C21.9851 6.91755 22.2323 7.34787 22.3942 7.81237C22.7128 8.76705 22.8603 9.7703 22.8299 10.7761V16.0291C22.8286 16.4716 22.796 16.9134 22.7321 17.3513C22.6105 18.124 22.3387 18.8655 21.9319 19.5341C21.7449 19.8571 21.5179 20.1552 21.2561 20.4215C20.0713 21.5089 18.498 22.0749 16.8904 21.992H8.76362C7.1535 22.0743 5.57762 21.5085 4.38902 20.4215C4.13041 20.1547 3.90637 19.8566 3.72216 19.5341C3.31776 18.866 3.0517 18.1238 2.93971 17.3513C2.8685 16.9141 2.83282 16.472 2.83301 16.0291V10.7761C2.83284 10.3374 2.85658 9.89896 2.90414 9.46282C2.91414 9.3863 2.92914 9.31103 2.94399 9.23653C2.96874 9.11234 2.99306 8.99032 2.99306 8.8683C3.08331 8.34198 3.24797 7.8311 3.48209 7.35095C4.17562 5.8691 5.59826 5.11486 7.92782 5.11486H17.7084C19.0132 5.01395 20.3083 5.40674 21.3362 6.21516C21.4545 6.31554 21.5646 6.42534 21.6651 6.54347ZM7.80334 15.5411H17.8685H17.8863C18.1071 15.5507 18.3226 15.4716 18.4847 15.3216C18.6467 15.1715 18.7418 14.963 18.7487 14.7425C18.7612 14.5487 18.6974 14.3577 18.5709 14.2101C18.4254 14.0118 18.1948 13.8934 17.9485 13.8906H7.80334C7.34665 13.8906 6.97644 14.2601 6.97644 14.7159C6.97644 15.1716 7.34665 15.5411 7.80334 15.5411Z" fill="#8C8C8C"/>
</svg>
