<svg width="25" height="24" viewBox="0 0 25 24" fill="none" xmlns="http://www.w3.org/2000/svg">
<path d="M20.833 12V18C20.833 20.21 19.043 22 16.833 22H8.83301C6.62301 22 4.83301 20.21 4.83301 18V12C4.83301 11.45 5.28301 11 5.83301 11H7.80301C8.35301 11 8.80301 11.45 8.80301 12V15.14C8.80301 15.88 9.21301 16.56 9.86301 16.91C10.153 17.07 10.473 17.15 10.803 17.15C11.183 17.15 11.563 17.04 11.893 16.82L12.843 16.2L13.723 16.79C14.333 17.2 15.113 17.25 15.763 16.9C16.423 16.55 16.833 15.88 16.833 15.13V12C16.833 11.45 17.283 11 17.833 11H19.833C20.383 11 20.833 11.45 20.833 12Z" fill="#2F2F3B"/>
<path d="M22.333 7V8C22.333 9.1 21.803 10 20.333 10H5.33301C3.80301 10 3.33301 9.1 3.33301 8V7C3.33301 5.9 3.80301 5 5.33301 5H20.333C21.803 5 22.333 5.9 22.333 7Z" fill="#2F2F3B"/>
<path d="M12.473 5H6.95304C6.61304 4.63 6.62304 4.06 6.98304 3.7L8.40304 2.28C8.77304 1.91 9.38304 1.91 9.75304 2.28L12.473 5Z" fill="#2F2F3B"/>
<path d="M18.7031 5H13.1831L15.9031 2.28C16.2731 1.91 16.8831 1.91 17.2531 2.28L18.6731 3.7C19.0331 4.06 19.0431 4.63 18.7031 5Z" fill="#2F2F3B"/>
<path d="M14.8029 11C15.353 11 15.8029 11.45 15.8029 12V15.13C15.8029 15.93 14.9129 16.41 14.2529 15.96L13.353 15.36C13.023 15.14 12.5929 15.14 12.2529 15.36L11.3129 15.98C10.6529 16.42 9.77295 15.94 9.77295 15.15V12C9.77295 11.45 10.2229 11 10.7729 11H14.8029Z" fill="#FEA102"/>
</svg>
